<svg aria-roledescription="er" viewBox="0 0 343.4022521972656 298.18359375" style="max-width: 343.4022521972656px;" xmlns="http://www.w3.org/2000/svg" width="undefined" id="mermaid-svg" height="undefined"><style>#mermaid-svg{font-family:"trebuchet ms",verdana,arial,sans-serif;font-size:16px;fill:#333;}#mermaid-svg .error-icon{fill:#552222;}#mermaid-svg .error-text{fill:#552222;stroke:#552222;}#mermaid-svg .edge-thickness-normal{stroke-width:2px;}#mermaid-svg .edge-thickness-thick{stroke-width:3.5px;}#mermaid-svg .edge-pattern-solid{stroke-dasharray:0;}#mermaid-svg .edge-pattern-dashed{stroke-dasharray:3;}#mermaid-svg .edge-pattern-dotted{stroke-dasharray:2;}#mermaid-svg .marker{fill:#333333;stroke:#333333;}#mermaid-svg .marker.cross{stroke:#333333;}#mermaid-svg svg{font-family:"trebuchet ms",verdana,arial,sans-serif;font-size:16px;}#mermaid-svg .entityBox{fill:#ECECFF;stroke:#9370DB;}#mermaid-svg .attributeBoxOdd{fill:#ffffff;stroke:#9370DB;}#mermaid-svg .attributeBoxEven{fill:#f2f2f2;stroke:#9370DB;}#mermaid-svg .relationshipLabelBox{fill:hsl(80, 100%, 96.2745098039%);opacity:0.7;background-color:hsl(80, 100%, 96.2745098039%);}#mermaid-svg .relationshipLabelBox rect{opacity:0.5;}#mermaid-svg .relationshipLine{stroke:#333333;}#mermaid-svg .entityTitleText{text-anchor:middle;font-size:18px;fill:#333;}#mermaid-svg :root{--mermaid-font-family:"trebuchet ms",verdana,arial,sans-serif;}</style><g></g><defs><marker orient="auto" markerHeight="18" markerWidth="18" refY="9" refX="0" id="ONLY_ONE_START"><path d="M9,0 L9,18 M15,0 L15,18" fill="none" stroke="gray"></path></marker></defs><defs><marker orient="auto" markerHeight="18" markerWidth="18" refY="9" refX="18" id="ONLY_ONE_END"><path d="M3,0 L3,18 M9,0 L9,18" fill="none" stroke="gray"></path></marker></defs><defs><marker orient="auto" markerHeight="18" markerWidth="30" refY="9" refX="0" id="ZERO_OR_ONE_START"><circle r="6" cy="9" cx="21" fill="white" stroke="gray"></circle><path d="M9,0 L9,18" fill="none" stroke="gray"></path></marker></defs><defs><marker orient="auto" markerHeight="18" markerWidth="30" refY="9" refX="30" id="ZERO_OR_ONE_END"><circle r="6" cy="9" cx="9" fill="white" stroke="gray"></circle><path d="M21,0 L21,18" fill="none" stroke="gray"></path></marker></defs><defs><marker orient="auto" markerHeight="36" markerWidth="45" refY="18" refX="18" id="ONE_OR_MORE_START"><path d="M0,18 Q 18,0 36,18 Q 18,36 0,18 M42,9 L42,27" fill="none" stroke="gray"></path></marker></defs><defs><marker orient="auto" markerHeight="36" markerWidth="45" refY="18" refX="27" id="ONE_OR_MORE_END"><path d="M3,9 L3,27 M9,18 Q27,0 45,18 Q27,36 9,18" fill="none" stroke="gray"></path></marker></defs><defs><marker orient="auto" markerHeight="36" markerWidth="57" refY="18" refX="18" id="ZERO_OR_MORE_START"><circle r="6" cy="18" cx="48" fill="white" stroke="gray"></circle><path d="M0,18 Q18,0 36,18 Q18,36 0,18" fill="none" stroke="gray"></path></marker></defs><defs><marker orient="auto" markerHeight="36" markerWidth="57" refY="18" refX="39" id="ZERO_OR_MORE_END"><circle r="6" cy="18" cx="9" fill="white" stroke="gray"></circle><path d="M21,18 Q39,0 57,18 Q39,36 21,18" fill="none" stroke="gray"></path></marker></defs><path style="stroke: gray; fill: none;" marker-start="url(#ZERO_OR_MORE_START)" marker-end="url(#ONLY_ONE_END)" d="M122.60616272976667,110.091796875L113.83846894147223,118.42513020833333C105.07077515317776,126.75846354166667,87.53538757658889,143.42513020833334,78.76769378829444,160.091796875C70,176.75846354166666,70,193.42513020833334,70,201.75846354166666L70,210.091796875" class="er relationshipLine"></path><path style="stroke: gray; fill: none;" marker-start="url(#ZERO_OR_MORE_START)" marker-end="url(#ONLY_ONE_END)" d="M217.39383727023335,110.091796875L226.16153105852777,118.42513020833333C234.92922484682222,126.75846354166667,252.46461242341113,143.42513020833334,261.2323062117055,160.091796875C270,176.75846354166666,270,193.42513020833334,270,201.75846354166666L270,210.091796875" class="er relationshipLine"></path><g transform="translate(20,210.091796875 )" id="entity-Customer-22b0679d-176e-4d09-954d-4c54088f505a"><rect height="68.091796875" width="100" y="0" x="0" class="er entityBox"></rect><text style="dominant-baseline: middle; text-anchor: middle; font-size: 12px;" transform="translate(50,12)" y="0" x="0" id="text-entity-Customer-22b0679d-176e-4d09-954d-4c54088f505a" class="er entityLabel">Customer</text><rect height="22" width="50.78125" y="24" x="0" class="er attributeBoxOdd"></rect><text style="dominant-baseline: middle; font-size: 10.2px;" transform="translate(5,35)" y="0" x="0" id="text-entity-Customer-22b0679d-176e-4d09-954d-4c54088f505a-attr-1-type" class="er entityLabel">Int</text><rect height="22" width="49.21875" y="24" x="50.78125" class="er attributeBoxOdd"></rect><text style="dominant-baseline: middle; font-size: 10.2px;" transform="translate(55.78125,35)" y="0" x="0" id="text-entity-Customer-22b0679d-176e-4d09-954d-4c54088f505a-attr-1-name" class="er entityLabel">id</text><rect height="22.091796875" width="50.78125" y="46" x="0" class="er attributeBoxEven"></rect><text style="dominant-baseline: middle; font-size: 10.2px;" transform="translate(5,57.0458984375)" y="0" x="0" id="text-entity-Customer-22b0679d-176e-4d09-954d-4c54088f505a-attr-2-type" class="er entityLabel">String</text><rect height="22.091796875" width="49.21875" y="46" x="50.78125" class="er attributeBoxEven"></rect><text style="dominant-baseline: middle; font-size: 10.2px;" transform="translate(55.78125,57.0458984375)" y="0" x="0" id="text-entity-Customer-22b0679d-176e-4d09-954d-4c54088f505a-attr-2-name" class="er entityLabel">name</text></g><g transform="translate(220,210.091796875 )" id="entity-Restaurant-8589a7ed-12b9-48e1-aab4-397cc3920aa0"><rect height="68.091796875" width="100" y="0" x="0" class="er entityBox"></rect><text style="dominant-baseline: middle; text-anchor: middle; font-size: 12px;" transform="translate(50,12)" y="0" x="0" id="text-entity-Restaurant-8589a7ed-12b9-48e1-aab4-397cc3920aa0" class="er entityLabel">Restaurant</text><rect height="22" width="50.78125" y="24" x="0" class="er attributeBoxOdd"></rect><text style="dominant-baseline: middle; font-size: 10.2px;" transform="translate(5,35)" y="0" x="0" id="text-entity-Restaurant-8589a7ed-12b9-48e1-aab4-397cc3920aa0-attr-1-type" class="er entityLabel">Int</text><rect height="22" width="49.21875" y="24" x="50.78125" class="er attributeBoxOdd"></rect><text style="dominant-baseline: middle; font-size: 10.2px;" transform="translate(55.78125,35)" y="0" x="0" id="text-entity-Restaurant-8589a7ed-12b9-48e1-aab4-397cc3920aa0-attr-1-name" class="er entityLabel">id</text><rect height="22.091796875" width="50.78125" y="46" x="0" class="er attributeBoxEven"></rect><text style="dominant-baseline: middle; font-size: 10.2px;" transform="translate(5,57.0458984375)" y="0" x="0" id="text-entity-Restaurant-8589a7ed-12b9-48e1-aab4-397cc3920aa0-attr-2-type" class="er entityLabel">String</text><rect height="22.091796875" width="49.21875" y="46" x="50.78125" class="er attributeBoxEven"></rect><text style="dominant-baseline: middle; font-size: 10.2px;" transform="translate(55.78125,57.0458984375)" y="0" x="0" id="text-entity-Restaurant-8589a7ed-12b9-48e1-aab4-397cc3920aa0-attr-2-name" class="er entityLabel">name</text></g><g transform="translate(112.734375,20 )" id="entity-Reservation-af54c9fe-24dc-49b6-8485-f7a82239e67a"><rect height="90.091796875" width="114.53125" y="0" x="0" class="er entityBox"></rect><text style="dominant-baseline: middle; text-anchor: middle; font-size: 12px;" transform="translate(57.265625,12)" y="0" x="0" id="text-entity-Reservation-af54c9fe-24dc-49b6-8485-f7a82239e67a" class="er entityLabel">Reservation</text><rect height="22" width="53.671875" y="24" x="0" class="er attributeBoxOdd"></rect><text style="dominant-baseline: middle; font-size: 10.2px;" transform="translate(5,35)" y="0" x="0" id="text-entity-Reservation-af54c9fe-24dc-49b6-8485-f7a82239e67a-attr-1-type" class="er entityLabel">Int</text><rect height="22" width="60.859375" y="24" x="53.671875" class="er attributeBoxOdd"></rect><text style="dominant-baseline: middle; font-size: 10.2px;" transform="translate(58.671875,35)" y="0" x="0" id="text-entity-Reservation-af54c9fe-24dc-49b6-8485-f7a82239e67a-attr-1-name" class="er entityLabel">id</text><rect height="22" width="53.671875" y="46" x="0" class="er attributeBoxEven"></rect><text style="dominant-baseline: middle; font-size: 10.2px;" transform="translate(5,57)" y="0" x="0" id="text-entity-Reservation-af54c9fe-24dc-49b6-8485-f7a82239e67a-attr-2-type" class="er entityLabel">DateTime</text><rect height="22" width="60.859375" y="46" x="53.671875" class="er attributeBoxEven"></rect><text style="dominant-baseline: middle; font-size: 10.2px;" transform="translate(58.671875,57)" y="0" x="0" id="text-entity-Reservation-af54c9fe-24dc-49b6-8485-f7a82239e67a-attr-2-name" class="er entityLabel">date</text><rect height="22.091796875" width="53.671875" y="68" x="0" class="er attributeBoxOdd"></rect><text style="dominant-baseline: middle; font-size: 10.2px;" transform="translate(5,79.0458984375)" y="0" x="0" id="text-entity-Reservation-af54c9fe-24dc-49b6-8485-f7a82239e67a-attr-3-type" class="er entityLabel">Int</text><rect height="22.091796875" width="60.859375" y="68" x="53.671875" class="er attributeBoxOdd"></rect><text style="dominant-baseline: middle; font-size: 10.2px;" transform="translate(58.671875,79.0458984375)" y="0" x="0" id="text-entity-Reservation-af54c9fe-24dc-49b6-8485-f7a82239e67a-attr-3-name" class="er entityLabel">partyCount</text></g><rect height="14" width="125.34375" y="146.45913696289062" x="20.019622802734375" class="er relationshipLabelBox"></rect><text style="text-anchor: middle; dominant-baseline: middle; font-size: 12px;" y="153.45913696289062" x="82.69149780273438" id="rel1" class="er relationshipLabel">CustomerToReservation</text><rect height="14" width="132.1875" y="146.4591522216797" x="191.21475219726562" class="er relationshipLabelBox"></rect><text style="text-anchor: middle; dominant-baseline: middle; font-size: 12px;" y="153.4591522216797" x="257.3085021972656" id="rel2" class="er relationshipLabel">ReservationToRestaurant</text></svg>